<?xml version="1.0" encoding="utf-8"?>
<svg version="1.1" id="layer" xmlns="http://www.w3.org/2000/svg" xmlns:xlink="http://www.w3.org/1999/xlink" x="0px" y="0px"
	 viewBox="0 0 652 652" style="enable-background:new 0 0 652 652;" xml:space="preserve">
<style type="text/css">
	.st0{fill:#DF0025;}
	.st1{fill:#888888;}
</style>
<path class="st0" d="M102,347l23.2-6.2l-22.1-22.1l22.1-22.1l-23.3-6.3l-6.2-23.2l-22.1,22.1l-22-22l-6.3,23.3l-23.2,6.2l22.1,22.1
	l-22.1,22.1l23.3,6.2l6.3,23.3l22.1-22.1l22.1,22.1L102,347z M90.4,350.1l-16.7-16.7L57,350.1l-3.2-11.7l-11.6-3.1l16.7-16.7
	L42.2,302l11.6-3.1l3.2-11.7l16.7,16.7l16.7-16.7l3.1,11.6l11.7,3.2l-16.7,16.7l16.7,16.7l-11.6,3.1L90.4,350.1z"/>
<path class="st1" d="M155,357.6c0-4.1,0-4.9,0-5.7c-0.1-0.9-0.3-1.4-1.2-1.5c-0.2-0.1-0.7-0.1-1.1-0.1c-0.3,0-0.5-0.1-0.5-0.3
	c0-0.2,0.2-0.2,0.6-0.2c1.4,0,3.1,0.1,3.7,0.1c0.9,0,3-0.1,3.8-0.1c1.7,0,3.5,0.2,5,1.2c0.8,0.5,1.8,1.9,1.8,3.7
	c0,2-0.8,3.8-3.6,6.1c2.4,3,4.3,5.5,5.9,7.1c1.5,1.6,2.6,1.8,3,1.8c0.3,0.1,0.5,0.1,0.8,0.1c0.2,0,0.3,0.1,0.3,0.2
	c0,0.2-0.2,0.3-0.5,0.3h-2.6c-1.5,0-2.2-0.1-2.9-0.5c-1.2-0.6-2.2-1.9-3.7-4c-1.1-1.5-2.3-3.3-2.7-3.7c-0.1-0.2-0.3-0.2-0.5-0.2
	l-2.4-0.1c-0.1,0-0.2,0.1-0.2,0.2v0.4c0,2.5,0,4.7,0.1,5.8c0.1,0.8,0.2,1.4,1.1,1.5c0.4,0.1,1,0.1,1.3,0.1c0.2,0,0.3,0.1,0.3,0.2
	c0,0.2-0.2,0.3-0.5,0.3c-1.6,0-3.6-0.1-4-0.1c-0.5,0-2.2,0.1-3.3,0.1c-0.4,0-0.5-0.1-0.5-0.3c0-0.1,0.1-0.2,0.4-0.2
	c0.4,0,0.7,0,1-0.1c0.5-0.1,0.7-0.7,0.8-1.5c0.1-1.1,0.1-3.3,0.1-5.8v-4.8H155z M158.2,359.8c0,0.3,0.1,0.4,0.2,0.5
	c0.6,0.2,1.4,0.3,2.1,0.3c1.1,0,1.4-0.1,1.9-0.5c0.8-0.6,1.6-1.8,1.6-4.1c0-3.8-2.5-5-4.1-5c-0.7,0-1.2,0-1.4,0.1s-0.2,0.2-0.2,0.4
	v8.3H158.2z"/>
<path class="st1" d="M175.4,357.6c0-4.1,0-4.9-0.1-5.7c-0.1-0.9-0.3-1.4-1.2-1.5c-0.2-0.1-0.7-0.1-1.1-0.1c-0.3,0-0.5-0.1-0.5-0.2
	c0-0.2,0.2-0.2,0.6-0.2c0.7,0,1.5,0,2.2,0s1.3,0.1,1.7,0.1c0.9,0,6.3,0,6.8,0c0.5-0.1,1-0.1,1.2-0.2c0.1,0,0.3-0.1,0.4-0.1
	c0.1,0,0.2,0.1,0.2,0.2c0,0.2-0.1,0.5-0.2,1.8c0,0.3-0.1,1.5-0.1,1.8c0,0.1-0.1,0.3-0.3,0.3s-0.3-0.1-0.3-0.4c0-0.2,0-0.6-0.2-1
	c-0.2-0.5-0.5-0.8-1.8-1c-0.5-0.1-3.3-0.1-3.8-0.1c-0.1,0-0.2,0.1-0.2,0.3v6.9c0,0.2,0,0.3,0.2,0.3c0.6,0,3.7,0,4.3-0.1
	c0.7-0.1,1.1-0.1,1.3-0.4c0.2-0.2,0.3-0.4,0.4-0.4c0.1,0,0.2,0.1,0.2,0.2c0,0.2-0.1,0.6-0.2,2c0,0.5-0.1,1.6-0.1,1.8
	c0,0.2,0,0.5-0.2,0.5s-0.2-0.1-0.2-0.2c0-0.3,0-0.6-0.1-1c-0.1-0.5-0.5-0.9-1.5-1c-0.5-0.1-3.2-0.1-3.8-0.1c-0.1,0-0.2,0.1-0.2,0.3
	v2.1c0,0.9,0,3.4,0,4.2c0.1,1.9,0.5,2.3,3.2,2.3c0.7,0,1.8,0,2.5-0.3s1-0.9,1.2-2c0.1-0.3,0.1-0.4,0.3-0.4s0.2,0.2,0.2,0.5
	c0,0.6-0.2,2.5-0.4,3c-0.2,0.7-0.4,0.7-1.5,0.7c-2,0-3.5-0.1-4.7-0.1c-1.2-0.1-2-0.1-2.8-0.1c-0.3,0-0.9,0-1.5,0s-1.3,0.1-1.9,0.1
	c-0.3,0-0.5-0.1-0.5-0.3c0-0.1,0.1-0.2,0.4-0.2c0.4,0,0.7-0.1,1-0.1c0.5-0.1,0.7-0.7,0.8-1.5c0.1-1.1,0.1-3.3,0.1-5.8v-4.9H175.4z"
	/>
<path class="st1" d="M196.1,351.3l-4,0.1c-1.6,0.1-2.2,0.2-2.6,0.8c-0.3,0.4-0.4,0.7-0.5,1c-0.1,0.2-0.1,0.3-0.3,0.3
	s-0.2-0.1-0.2-0.4c0-0.4,0.5-2.9,0.6-3.1c0.1-0.4,0.2-0.5,0.3-0.5c0.2,0,0.5,0.3,1.2,0.3c0.8,0.1,1.8,0.1,2.7,0.1H204
	c0.9,0,1.5-0.1,1.9-0.1c0.4-0.1,0.6-0.1,0.7-0.1c0.2,0,0.2,0.2,0.2,0.6c0,0.6-0.1,2.4-0.1,3.1c0,0.3-0.1,0.4-0.2,0.4
	c-0.2,0-0.3-0.1-0.3-0.5V353c-0.1-0.7-0.8-1.5-3.2-1.5l-3.4-0.1v11.1c0,2.5,0,4.6,0.1,5.8c0.1,0.8,0.2,1.4,1.1,1.5
	c0.4,0.1,1,0.1,1.4,0.1c0.3,0,0.4,0.1,0.4,0.2c0,0.2-0.2,0.3-0.5,0.3c-1.8,0-3.5-0.1-4.3-0.1c-0.6,0-2.3,0.1-3.4,0.1
	c-0.4,0-0.5-0.1-0.5-0.3c0-0.1,0.1-0.2,0.4-0.2c0.4,0,0.7-0.1,1-0.1c0.5-0.1,0.7-0.7,0.8-1.5c0.1-1.1,0.1-3.3,0.1-5.8L196.1,351.3
	L196.1,351.3z M199,374.5c-0.3,0.7-1.1,2.2-1.8,3.1c-0.2,0.1-0.3,0.3-0.4,0.3c-0.1,0-0.2-0.1-0.2-0.2s0.1-0.3,0.2-0.4
	c0.5-0.8,0.7-1.5,0.7-2c0-1.3-1-1.7-1-2c0-0.8,1-1.6,1.7-1.6c0.2,0,0.3,0.1,0.6,0.6c0.4,0.6,0.5,0.9,0.5,1.2
	C199.3,373.6,199.1,374.1,199,374.5"/>
<path class="st1" d="M211.8,357.6c0-4.1,0-4.9-0.1-5.7c-0.1-0.9-0.3-1.4-1.2-1.6c-0.2,0-0.7-0.1-1.1-0.1c-0.3,0-0.5-0.1-0.5-0.2
	c0-0.2,0.2-0.2,0.6-0.2c0.7,0,1.5,0,2.2,0s1.3,0.1,1.7,0.1c0.9,0,6.3,0,6.8,0c0.5-0.1,0.9-0.1,1.2-0.2c0.1,0,0.3-0.1,0.4-0.1
	c0.1,0,0.2,0.1,0.2,0.3c0,0.2-0.1,0.5-0.2,1.8c0,0.3-0.1,1.5-0.1,1.8c0,0.1-0.1,0.3-0.3,0.3s-0.2-0.1-0.2-0.4c0-0.2,0-0.7-0.2-1
	c-0.2-0.5-0.5-0.8-1.8-1c-0.5-0.1-3.3-0.1-3.8-0.1c-0.1,0-0.2,0.1-0.2,0.3v6.8c0,0.2,0,0.3,0.2,0.3c0.6,0,3.7,0,4.3-0.1
	c0.7-0.1,1.1-0.1,1.3-0.4c0.2-0.2,0.3-0.4,0.4-0.4c0.1,0,0.2,0.1,0.2,0.2c0,0.2-0.1,0.6-0.2,2c0,0.5-0.1,1.6-0.1,1.8
	c0,0.2,0,0.5-0.2,0.5s-0.2-0.1-0.2-0.2c0-0.3,0-0.6-0.1-1c-0.1-0.5-0.5-0.9-1.5-1.1c-0.5-0.1-3.2-0.1-3.8-0.1
	c-0.1,0-0.2,0.1-0.2,0.3v2.1c0,0.9,0,3.4,0,4.2c0.1,1.9,0.5,2.3,3.3,2.3c0.7,0,1.8,0,2.5-0.3s1-0.9,1.2-2c0.1-0.3,0.1-0.4,0.3-0.4
	s0.2,0.2,0.2,0.5c0,0.6-0.2,2.5-0.3,3c-0.2,0.7-0.4,0.7-1.5,0.7c-2,0-3.5-0.1-4.7-0.1c-1.2-0.1-2-0.1-2.8-0.1c-0.3,0-0.9,0-1.5,0
	s-1.3,0.1-1.9,0.1c-0.4,0-0.5-0.1-0.5-0.3c0-0.1,0.1-0.2,0.4-0.2c0.4,0,0.7-0.1,1-0.1c0.5-0.1,0.7-0.7,0.8-1.5
	c0.1-1.1,0.1-3.3,0.1-5.8L211.8,357.6L211.8,357.6z"/>
<path class="st1" d="M230,363.2c-0.1,0-0.2,0.1-0.2,0.2l-1.5,3.9c-0.3,0.7-0.4,1.3-0.4,1.6c0,0.5,0.2,0.8,1.1,0.8h0.4
	c0.3,0,0.4,0.1,0.4,0.2c0,0.2-0.2,0.3-0.5,0.3c-0.9,0-2-0.1-2.9-0.1c-0.3,0-1.8,0.1-3.2,0.1c-0.4,0-0.5-0.1-0.5-0.3
	c0-0.2,0.1-0.2,0.3-0.2s0.6,0,0.8-0.1c1.2-0.2,1.8-1.1,2.3-2.4l6.8-17c0.3-0.8,0.5-1.1,0.8-1.1c0.2,0,0.4,0.2,0.7,0.9
	c0.7,1.5,5,12.5,6.7,16.7c1,2.4,1.8,2.8,2.4,2.9c0.4,0.1,0.8,0.1,1.1,0.1c0.2,0,0.4,0,0.4,0.2s-0.2,0.3-1.3,0.3c-1,0-3,0-5.1-0.1
	c-0.5,0-0.8,0-0.8-0.2s0.1-0.2,0.4-0.2c0.2-0.1,0.4-0.3,0.2-0.6l-2.2-5.7c-0.1-0.1-0.1-0.2-0.3-0.2L230,363.2L230,363.2z
	 M235.5,361.8c0.1,0,0.2-0.1,0.1-0.2l-2.4-6.7c0-0.1,0-0.2-0.1-0.2s-0.1,0.1-0.2,0.2l-2.5,6.7c0,0.1,0,0.2,0.1,0.2H235.5z"/>
<path class="st1" d="M246.5,357.6c0-4.1,0-4.9-0.1-5.7c-0.1-0.9-0.3-1.4-1.2-1.5c-0.2-0.1-0.7-0.1-1.1-0.1c-0.3,0-0.5-0.1-0.5-0.2
	c0-0.2,0.2-0.2,0.6-0.2c1.4,0,3.1,0.1,4,0.1c0.6,0,2.3-0.1,3.3-0.1c0.4,0,0.6,0.1,0.6,0.2c0,0.2-0.2,0.2-0.4,0.2
	c-0.3,0-0.4,0-0.8,0.1c-0.7,0.1-1,0.6-1,1.5c-0.1,0.9-0.1,1.6-0.1,5.7v3.8c0,3.9,0.8,5.6,2.1,6.7c1.2,1,2.5,1.1,3.4,1.1
	c1.2,0,2.7-0.4,3.7-1.5c1.5-1.5,1.6-3.9,1.6-6.7v-3.4c0-4.1,0-4.9-0.1-5.7c0-0.9-0.3-1.4-1.2-1.5c-0.2-0.1-0.7-0.1-1-0.1
	s-0.5-0.1-0.5-0.2c0-0.2,0.2-0.2,0.6-0.2c1.4,0,3.1,0.1,3.1,0.1c0.3,0,2-0.1,3.1-0.1c0.4,0,0.6,0.1,0.6,0.2c0,0.2-0.2,0.2-0.5,0.2
	s-0.5,0-0.8,0.1c-0.7,0.1-0.9,0.6-1,1.5s-0.1,1.6-0.1,5.7v2.9c0,3-0.3,6.2-2.6,8.1c-1.9,1.7-3.9,2-5.6,2c-1.4,0-4-0.1-6-1.9
	c-1.4-1.2-2.4-3.2-2.4-7.2L246.5,357.6z"/>
<path class="st1" d="M271.5,363.2c-0.1,0-0.2,0.1-0.2,0.2l-1.5,3.9c-0.3,0.7-0.4,1.3-0.4,1.6c0,0.5,0.3,0.8,1.1,0.8h0.4
	c0.3,0,0.4,0,0.4,0.2s-0.2,0.3-0.5,0.3c-0.9,0-2-0.1-2.9-0.1c-0.3,0-1.8,0.1-3.2,0.1c-0.3,0-0.5-0.1-0.5-0.3c0-0.2,0.1-0.2,0.3-0.2
	c0.2,0,0.6,0,0.8-0.1c1.2-0.2,1.8-1.1,2.3-2.4l6.8-17c0.3-0.8,0.5-1.1,0.8-1.1c0.2,0,0.4,0.2,0.7,0.9c0.7,1.5,5,12.5,6.7,16.6
	c1,2.4,1.8,2.8,2.4,3c0.4,0.1,0.8,0.1,1.1,0.1c0.2,0,0.4,0,0.4,0.2s-0.3,0.3-1.2,0.3c-1,0-3,0-5.1,0c-0.5,0-0.8,0-0.8-0.2
	s0.1-0.2,0.4-0.2c0.2-0.1,0.4-0.3,0.2-0.6l-2.2-5.7c-0.1-0.1-0.1-0.2-0.3-0.2L271.5,363.2L271.5,363.2z M277,361.8
	c0.1,0,0.2-0.1,0.1-0.2l-2.4-6.7c0-0.1-0.1-0.2-0.1-0.2c-0.1,0-0.1,0.1-0.2,0.2l-2.5,6.7c0,0.1,0,0.2,0.1,0.2H277z"/>
<path class="st1" d="M297.5,357.7c0-4.1,0-4.9-0.1-5.7c-0.1-0.9-0.3-1.3-1.2-1.5c-0.2-0.1-0.7-0.1-1.1-0.1c-0.3,0-0.5,0-0.5-0.2
	s0.2-0.2,0.6-0.2c1.4,0,3.1,0.1,3.9,0.1c1.1,0,2.7-0.1,3.9-0.1c3.4,0,4.6,1.1,5,1.5c0.6,0.6,1.3,1.8,1.3,3.2c0,3.8-2.8,6.5-6.7,6.5
	c-0.1,0-0.4,0-0.6,0c-0.1,0-0.3-0.1-0.3-0.3c0-0.2,0.2-0.3,0.8-0.3c1.5,0,3.6-1.7,3.6-4.5c0-0.9-0.1-2.7-1.6-4
	c-1-0.9-2.1-1.1-2.7-1.1c-0.4,0-0.8,0-1.1,0.1c-0.1,0.1-0.2,0.2-0.2,0.5v10.8c0,2.5,0,4.6,0.1,5.8c0.1,0.8,0.2,1.4,1.1,1.5
	c0.4,0.1,1,0.1,1.4,0.1c0.3,0,0.4,0.1,0.4,0.2c0,0.2-0.2,0.3-0.5,0.3c-1.8,0-3.5-0.1-4.2-0.1c-0.6,0-2.3,0.1-3.4,0.1
	c-0.4,0-0.5-0.1-0.5-0.3c0-0.1,0.1-0.2,0.4-0.2c0.4,0,0.7-0.1,1-0.1c0.5-0.1,0.7-0.7,0.8-1.5c0.1-1.1,0.1-3.3,0.1-5.8v-4.7H297.5z"
	/>
<path class="st1" d="M315.2,357.7c0-4.1,0-4.9,0-5.7c-0.1-0.9-0.3-1.4-1.2-1.6c-0.2-0.1-0.7-0.1-1.1-0.1c-0.3,0-0.5-0.1-0.5-0.3
	c0-0.2,0.2-0.2,0.6-0.2c1.4,0,3.1,0.1,3.7,0.1c0.9,0,3-0.1,3.8-0.1c1.7,0,3.5,0.2,5,1.2c0.8,0.5,1.8,1.9,1.8,3.7
	c0,2-0.8,3.8-3.6,6.1c2.4,3,4.3,5.4,5.9,7.1c1.5,1.6,2.6,1.8,3,1.8c0.3,0.1,0.5,0.1,0.8,0.1c0.2,0,0.3,0.1,0.3,0.2
	c0,0.2-0.2,0.3-0.5,0.3h-2.6c-1.5,0-2.2-0.1-2.9-0.5c-1.2-0.6-2.2-1.9-3.7-4c-1.1-1.5-2.3-3.3-2.7-3.7c-0.1-0.2-0.3-0.2-0.5-0.2
	l-2.4-0.1c-0.1,0-0.2,0.1-0.2,0.2v0.4c0,2.5,0,4.6,0.1,5.8c0.1,0.8,0.2,1.4,1.1,1.5c0.4,0,1,0.1,1.3,0.1c0.2,0,0.3,0.1,0.3,0.2
	c0,0.2-0.2,0.3-0.5,0.3c-1.6,0-3.6-0.1-4-0.1c-0.5,0-2.2,0.1-3.3,0.1c-0.3,0-0.5-0.1-0.5-0.3c0-0.1,0.1-0.2,0.4-0.2
	c0.4,0,0.7-0.1,1-0.1c0.5-0.1,0.7-0.7,0.8-1.5c0.1-1.1,0.1-3.3,0.1-5.8v-4.7H315.2z M318.4,359.8c0,0.3,0.1,0.4,0.2,0.5
	c0.6,0.2,1.4,0.3,2.1,0.3c1.1,0,1.4-0.1,1.9-0.5c0.8-0.6,1.6-1.8,1.6-4.1c0-3.8-2.5-5-4.1-5c-0.7,0-1.2,0-1.4,0.1
	c-0.2,0.1-0.2,0.2-0.2,0.4v8.3H318.4z"/>
<path class="st1" d="M335.7,357.7c0-4.1,0-4.9-0.1-5.7c-0.1-0.9-0.3-1.4-0.9-1.5c-0.3-0.1-0.7-0.1-1-0.1s-0.4-0.1-0.4-0.3
	c0-0.2,0.2-0.2,0.7-0.2c1,0,2.7,0.1,3.5,0.1c0.7,0,2.3-0.1,3.3-0.1c0.4,0,0.6,0,0.6,0.2s-0.2,0.3-0.4,0.3c-0.3,0-0.5,0-0.8,0.1
	c-0.7,0.1-0.9,0.6-1,1.5s-0.1,1.6-0.1,5.7v4.8c0,2.6,0,4.8,0.1,5.9c0.1,0.7,0.3,1.2,1.1,1.3c0.4,0.1,1,0.1,1.4,0.1
	c0.3,0,0.4,0.1,0.4,0.2c0,0.2-0.2,0.3-0.5,0.3c-1.8,0-3.5-0.1-4.2-0.1c-0.6,0-2.3,0.1-3.4,0.1c-0.4,0-0.5-0.1-0.5-0.3
	c0-0.1,0.1-0.2,0.4-0.2c0.4,0,0.7-0.1,1-0.1c0.5-0.1,0.7-0.6,0.8-1.4c0.1-1.1,0.1-3.3,0.1-5.9L335.7,357.7z"/>
<path class="st1" d="M345.4,352.5c-0.6-1.5-1.1-1.8-2.1-2.1c-0.4-0.1-0.8-0.1-1.1-0.1c-0.2,0-0.3-0.1-0.3-0.2c0-0.2,0.3-0.2,0.7-0.2
	c1.4,0,3,0.1,3.9,0.1c0.7,0,2-0.1,3.3-0.1c0.3,0,0.6,0,0.6,0.2s-0.2,0.2-0.4,0.2c-0.4,0-0.8,0-1.1,0.2c-0.2,0.1-0.3,0.3-0.3,0.6
	c0,0.4,0.2,1.1,0.6,2.1l4.6,12.3h0.1c1.2-3,4.7-11.7,5.3-13.5c0.1-0.3,0.2-0.8,0.2-1s-0.1-0.4-0.3-0.5c-0.3-0.1-0.7-0.1-1.1-0.1
	c-0.2,0-0.5,0-0.5-0.2s0.2-0.3,0.7-0.3c1.4,0,2.5,0.1,2.9,0.1c0.5,0,1.7-0.1,2.5-0.1c0.3,0,0.6,0,0.6,0.2s-0.2,0.2-0.4,0.2
	c-0.3,0-0.8,0-1.3,0.3c-0.4,0.2-0.8,0.7-1.5,2.4c-1,2.5-1.8,4-3.2,7.3c-1.7,4-3,6.9-3.6,8.3c-0.7,1.6-0.9,2-1.2,2
	c-0.4,0-0.5-0.4-1-1.7L345.4,352.5z"/>
<path class="st1" d="M367.1,363.2c-0.1,0-0.2,0.1-0.2,0.2l-1.5,3.9c-0.3,0.7-0.4,1.3-0.4,1.7c0,0.5,0.2,0.8,1.1,0.8h0.4
	c0.3,0,0.4,0.1,0.4,0.2c0,0.2-0.2,0.3-0.5,0.3c-0.9,0-2-0.1-2.9-0.1c-0.3,0-1.8,0.1-3.2,0.1c-0.4,0-0.5-0.1-0.5-0.3
	c0-0.2,0.1-0.2,0.3-0.2c0.3,0,0.6,0,0.8-0.1c1.2-0.2,1.8-1.1,2.3-2.4l6.8-17c0.3-0.8,0.5-1.1,0.8-1.1c0.2,0,0.4,0.2,0.7,0.9
	c0.6,1.5,5,12.5,6.7,16.7c1,2.4,1.8,2.8,2.4,3c0.4,0.1,0.8,0.1,1.1,0.1c0.2,0,0.4,0,0.4,0.2s-0.2,0.3-1.2,0.3s-3,0-5.1-0.1
	c-0.5,0-0.8,0-0.8-0.2s0.1-0.2,0.4-0.2c0.2-0.1,0.4-0.3,0.2-0.6l-2.2-5.7c0-0.1-0.1-0.2-0.3-0.2h-6V363.2z M372.6,361.9
	c0.1,0,0.2-0.1,0.1-0.2l-2.4-6.7c0-0.1,0-0.2-0.1-0.2s-0.1,0.1-0.2,0.2l-2.5,6.7c0,0.1,0,0.2,0.1,0.2H372.6z"/>
<path class="st1" d="M386.8,351.3l-4,0.1c-1.6,0.1-2.2,0.2-2.6,0.8c-0.3,0.4-0.4,0.7-0.5,0.9c-0.1,0.2-0.1,0.3-0.3,0.3
	c-0.2,0-0.2-0.1-0.2-0.4c0-0.4,0.5-2.9,0.6-3.1c0.1-0.4,0.2-0.5,0.3-0.5c0.2,0,0.5,0.3,1.2,0.3c0.8,0.1,1.8,0.1,2.7,0.1h10.7
	c0.9,0,1.5-0.1,1.9-0.1c0.4-0.1,0.6-0.1,0.7-0.1c0.2,0,0.2,0.2,0.2,0.6c0,0.6-0.1,2.4-0.1,3.1c0,0.3-0.1,0.4-0.2,0.4
	c-0.2,0-0.3-0.1-0.3-0.5v-0.3c0-0.7-0.8-1.5-3.2-1.5l-3.4-0.1v11.1c0,2.5,0,4.6,0.1,5.8c0.1,0.8,0.2,1.4,1.1,1.5
	c0.4,0,1,0.1,1.4,0.1c0.3,0,0.4,0.1,0.4,0.2c0,0.2-0.2,0.3-0.5,0.3c-1.8,0-3.5-0.1-4.2-0.1c-0.6,0-2.3,0.1-3.4,0.1
	c-0.4,0-0.5-0.1-0.5-0.3c0-0.1,0.1-0.2,0.4-0.2c0.4,0,0.7-0.1,1-0.1c0.5-0.1,0.7-0.7,0.8-1.5c0.1-1.1,0.1-3.3,0.1-5.8v-11.1H386.8z"
	/>
<path class="st1" d="M401.9,363.2c-0.1,0-0.2,0.1-0.2,0.2l-1.5,3.9c-0.3,0.7-0.4,1.3-0.4,1.7c0,0.5,0.2,0.8,1.1,0.8h0.4
	c0.3,0,0.4,0.1,0.4,0.2c0,0.2-0.2,0.3-0.5,0.3c-0.9,0-2-0.1-2.9-0.1c-0.3,0-1.8,0.1-3.2,0.1c-0.4,0-0.5-0.1-0.5-0.3
	c0-0.2,0.1-0.2,0.3-0.2c0.2,0,0.6,0,0.8-0.1c1.2-0.2,1.8-1.1,2.3-2.4l6.8-17c0.3-0.8,0.5-1.1,0.8-1.1c0.2,0,0.4,0.2,0.7,0.9
	c0.6,1.5,5,12.5,6.7,16.7c1,2.4,1.8,2.8,2.4,2.9c0.4,0.1,0.8,0.1,1.1,0.1c0.2,0,0.4,0,0.4,0.2s-0.2,0.3-1.2,0.3s-3,0-5.1-0.1
	c-0.5,0-0.8,0-0.8-0.2s0.1-0.2,0.4-0.2c0.2-0.1,0.4-0.3,0.2-0.6l-2.2-5.7c-0.1-0.1-0.1-0.2-0.3-0.2L401.9,363.2L401.9,363.2z
	 M401.9,345l0.9-0.7c0.2-0.2,0.3-0.2,0.4-0.2c0.2,0,0.3,0.4,0.6,0.6c1,1.1,1.8,1.2,2.5,1.2c1.2,0,2.1-0.6,2.4-0.8c0.8-0.7,1-1,1.2-1
	c0.1,0,0.2,0.1,0.2,0.2c0,0.4-1.1,1.6-1.7,2c-0.9,0.6-1.6,0.9-2.9,0.9c-0.8,0-1.9-0.3-2.7-1c-0.4-0.3-1-0.9-1-1.1
	C401.7,345.1,401.9,345.1,401.9,345 M407.4,361.9c0.1,0,0.2-0.1,0.1-0.2l-2.4-6.7c0-0.1-0.1-0.2-0.1-0.2c-0.1,0-0.1,0.1-0.2,0.2
	l-2.5,6.7c0,0.1,0,0.2,0.1,0.2H407.4z"/>
<path class="st1" d="M427.9,357.7c0-4.1,0-4.9-0.1-5.7c0-0.9-0.3-1.4-1.2-1.5c-0.2-0.1-0.7-0.1-1.1-0.1c-0.3,0-0.5-0.1-0.5-0.2
	c0-0.2,0.2-0.2,0.6-0.2c1.4,0,3.1,0.1,3.9,0.1s2.5-0.1,4.2-0.1c3.4,0,7.9,0,10.9,3.1c1.3,1.4,2.6,3.7,2.6,6.9c0,3.4-1.4,6-3,7.6
	c-1.2,1.3-4.1,3.2-9.1,3.2c-1,0-2.1-0.1-3.1-0.2s-2-0.2-2.6-0.2c-0.3,0-0.9,0-1.5,0s-1.3,0.1-1.9,0.1c-0.4,0-0.5-0.1-0.5-0.3
	c0-0.1,0.1-0.2,0.4-0.2c0.4,0,0.7-0.1,1-0.1c0.5-0.1,0.7-0.7,0.8-1.5c0.1-1.1,0.1-3.3,0.1-5.8v-4.9H427.9z M431.3,360.7
	c0,2.9,0,5,0.1,5.5c0,0.7,0.1,1.8,0.3,2c0.4,0.5,1.4,1.1,3.6,1.1c2.8,0,4.6-0.5,6.2-2c1.7-1.5,2.3-3.9,2.3-6.7
	c0-3.4-1.4-5.7-2.6-6.8c-2.5-2.4-5.6-2.7-7.7-2.7c-0.5,0-1.5,0.1-1.8,0.2c-0.2,0.1-0.3,0.2-0.3,0.5c0,0.9,0,3.3,0,5.4v3.5H431.3z"/>
<path class="st1" d="M453,357.7c0-4.1,0-4.9,0-5.7c-0.1-0.9-0.3-1.4-1.2-1.5c-0.2-0.1-0.7-0.1-1.1-0.1c-0.3,0-0.5,0-0.5-0.2
	s0.2-0.2,0.6-0.2c0.7,0,1.5,0,2.2,0s1.3,0.1,1.7,0.1c0.9,0,6.3,0,6.8,0c0.5-0.1,0.9-0.1,1.2-0.2c0.1,0,0.3-0.1,0.4-0.1
	s0.2,0.1,0.2,0.2c0,0.2-0.1,0.5-0.2,1.8c0,0.3-0.1,1.5-0.1,1.8c0,0.1-0.1,0.3-0.3,0.3c-0.2,0-0.2-0.1-0.2-0.4c0-0.2,0-0.7-0.2-1
	c-0.2-0.5-0.5-0.8-1.8-1c-0.5,0-3.3-0.1-3.8-0.1c-0.1,0-0.2,0.1-0.2,0.3v6.9c0,0.2,0,0.3,0.2,0.3c0.6,0,3.7,0,4.3,0
	c0.7-0.1,1.1-0.1,1.3-0.4c0.2-0.2,0.3-0.4,0.4-0.4s0.2,0.1,0.2,0.2c0,0.2-0.1,0.6-0.2,2c0,0.5-0.1,1.6-0.1,1.8c0,0.2,0,0.5-0.2,0.5
	s-0.2-0.1-0.2-0.3c0-0.3,0-0.6-0.1-1c-0.1-0.5-0.5-0.9-1.5-1.1c-0.5-0.1-3.2-0.1-3.8-0.1c-0.1,0-0.2,0.1-0.2,0.3v2.1
	c0,0.9,0,3.4,0,4.2c0.1,1.9,0.5,2.3,3.2,2.3c0.7,0,1.8,0,2.5-0.3s1-0.9,1.2-2c0.1-0.3,0.1-0.4,0.3-0.4c0.2,0,0.2,0.2,0.2,0.5
	c0,0.6-0.2,2.5-0.4,3c-0.2,0.7-0.4,0.7-1.5,0.7c-2,0-3.5-0.1-4.7-0.1c-1.2-0.1-2-0.1-2.8-0.1c-0.3,0-0.9,0-1.5,0s-1.3,0.1-1.9,0.1
	c-0.4,0-0.5-0.1-0.5-0.3c0-0.1,0.1-0.2,0.4-0.2c0.4,0,0.7-0.1,1-0.1c0.5-0.1,0.7-0.7,0.8-1.5c0.1-1.1,0.1-3.3,0.1-5.8L453,357.7
	L453,357.7z"/>
<path class="st1" d="M476.7,370c-0.4-0.2-0.5-0.3-0.5-0.9c0-1.5,0.1-3.1,0.1-3.5s0.1-0.7,0.3-0.7c0.2,0,0.3,0.2,0.3,0.5
	c0,0.4,0.1,0.9,0.2,1.4c0.6,2,2.2,2.7,3.9,2.7c2.4,0,3.6-1.7,3.6-3.1c0-1.3-0.4-2.6-2.7-4.3l-1.2-1c-3-2.3-4-4.2-4-6.4
	c0-3,2.5-5.1,6.3-5.1c1.8,0,2.9,0.3,3.6,0.5c0.2,0.1,0.4,0.1,0.4,0.3c0,0.4-0.1,1.1-0.1,3.2c0,0.6-0.1,0.8-0.3,0.8
	c-0.2,0-0.3-0.2-0.3-0.5c0-0.2-0.1-1.1-0.7-1.8c-0.4-0.5-1.2-1.3-3-1.3c-2,0-3.2,1.2-3.2,2.8c0,1.2,0.6,2.2,2.9,3.9l0.8,0.6
	c3.3,2.4,4.4,4.3,4.4,6.9c0,1.6-0.6,3.4-2.5,4.7c-1.4,0.9-2.9,1.1-4.3,1.1C479.1,370.7,477.9,370.5,476.7,370"/>
<path class="st1" d="M495.1,363.2c-0.1,0-0.2,0.1-0.2,0.2l-1.5,3.9c-0.3,0.7-0.4,1.3-0.4,1.7c0,0.5,0.3,0.8,1.1,0.8h0.4
	c0.3,0,0.4,0.1,0.4,0.2c0,0.2-0.2,0.3-0.5,0.3c-0.9,0-2-0.1-2.9-0.1c-0.3,0-1.8,0.1-3.2,0.1c-0.4,0-0.5-0.1-0.5-0.3
	c0-0.2,0.1-0.2,0.3-0.2c0.2,0,0.6,0,0.8,0c1.2-0.2,1.8-1.1,2.3-2.4l6.8-17c0.3-0.8,0.5-1.1,0.8-1.1c0.2,0,0.4,0.3,0.7,0.9
	c0.7,1.5,5,12.5,6.7,16.7c1,2.4,1.8,2.8,2.4,3c0.4,0.1,0.8,0.1,1.1,0.1c0.2,0,0.4,0,0.4,0.2s-0.2,0.3-1.2,0.3s-2.9,0-5.1-0.1
	c-0.5,0-0.8,0-0.8-0.2s0.1-0.2,0.4-0.2c0.2-0.1,0.4-0.3,0.2-0.6l-2.2-5.7c0-0.1-0.1-0.2-0.3-0.2L495.1,363.2z M495.1,345l0.9-0.7
	c0.2-0.2,0.3-0.2,0.4-0.2c0.2,0,0.3,0.3,0.6,0.6c0.9,1.1,1.8,1.2,2.5,1.2c1.2,0,2.1-0.6,2.4-0.8c0.8-0.7,1-1,1.2-1
	c0.1,0,0.2,0.1,0.2,0.2c0,0.4-1.1,1.6-1.7,2c-0.9,0.6-1.6,0.9-2.9,0.9c-0.8,0-1.9-0.3-2.7-1c-0.4-0.3-1-0.9-1-1.1
	C494.9,345.1,495,345.1,495.1,345 M500.6,361.9c0.1,0,0.2-0.1,0.1-0.2l-2.4-6.7c0-0.1-0.1-0.2-0.1-0.2c-0.1,0-0.1,0.1-0.2,0.2
	l-2.5,6.7c0,0.1,0,0.2,0.1,0.2H500.6z"/>
<path class="st1" d="M514.5,366.6c0.1,2.1,0.4,2.8,0.9,3s1,0.2,1.4,0.2c0.3,0,0.5,0.1,0.5,0.2c0,0.2-0.2,0.3-0.6,0.3
	c-1.8,0-2.8-0.1-3.4-0.1c-0.2,0-1.5,0.1-2.9,0.1c-0.3,0-0.6,0-0.6-0.3c0-0.2,0.2-0.2,0.4-0.2c0.4,0,0.8,0,1.2-0.1
	c0.7-0.2,0.8-1,0.8-3.4l0.2-16c0-0.5,0.1-0.9,0.4-0.9c0.3,0,0.5,0.4,1,0.8c0.3,0.3,4.4,4.8,8.4,8.7c1.8,1.8,5.5,5.7,6,6.2h0.1
	l-0.3-12.2c0-1.7-0.3-2.2-0.9-2.4c-0.4-0.2-1.1-0.2-1.4-0.2c-0.3,0-0.4-0.1-0.4-0.2c0-0.2,0.3-0.2,0.7-0.2c1.4,0,2.7,0.1,3.3,0.1
	c0.3,0,1.3-0.1,2.7-0.1c0.4,0,0.6,0,0.6,0.2s-0.2,0.2-0.5,0.2s-0.5,0-0.8,0.1c-0.8,0.2-1,0.8-1,2.3l-0.3,17.1c0,0.6-0.1,0.8-0.3,0.8
	c-0.3,0-0.6-0.3-0.9-0.6c-1.7-1.6-5.2-5.2-8-8c-2.9-2.9-5.9-6.3-6.4-6.8h-0.1L514.5,366.6z"/>
<path class="st1" d="M539.7,363.3c-0.1,0-0.2,0.1-0.2,0.2l-1.5,3.9c-0.3,0.7-0.4,1.3-0.4,1.7c0,0.5,0.2,0.8,1.1,0.8h0.4
	c0.3,0,0.4,0.1,0.4,0.2c0,0.2-0.2,0.3-0.5,0.3c-0.9,0-2-0.1-2.9-0.1c-0.3,0-1.8,0.1-3.2,0.1c-0.3,0-0.5-0.1-0.5-0.3
	c0-0.2,0.1-0.2,0.3-0.2s0.6,0,0.8-0.1c1.2-0.2,1.8-1.1,2.3-2.4l6.8-17c0.3-0.8,0.5-1.1,0.8-1.1c0.2,0,0.4,0.2,0.7,0.9
	c0.6,1.5,5,12.5,6.7,16.7c1,2.4,1.8,2.8,2.4,3c0.4,0.1,0.8,0.1,1.1,0.1c0.2,0,0.4,0,0.4,0.2s-0.2,0.3-1.2,0.3s-2.9,0-5.1-0.1
	c-0.5,0-0.8,0-0.8-0.2s0.1-0.2,0.4-0.2c0.2-0.1,0.4-0.3,0.2-0.6l-2.2-5.7c-0.1-0.1-0.1-0.2-0.3-0.2L539.7,363.3z M539.7,345l0.9-0.7
	c0.2-0.2,0.3-0.2,0.4-0.2c0.2,0,0.3,0.3,0.6,0.6c1,1.1,1.8,1.2,2.5,1.2c1.2,0,2.1-0.6,2.4-0.8c0.8-0.7,1-1,1.2-1
	c0.1,0,0.2,0.1,0.2,0.2c0,0.4-1.1,1.6-1.7,2c-0.9,0.6-1.6,0.9-2.9,0.9c-0.8,0-1.9-0.3-2.7-1c-0.4-0.3-1-0.9-1-1.1
	C539.5,345.1,539.6,345.1,539.7,345 M545.2,361.9c0.1,0,0.2-0.1,0.1-0.2l-2.4-6.7c0-0.1,0-0.2-0.1-0.2s-0.1,0.1-0.2,0.2l-2.5,6.7
	c0,0.1,0,0.2,0.1,0.2H545.2z"/>
<path class="st1" d="M559.4,351.4l-4,0.1c-1.6,0.1-2.2,0.2-2.6,0.8c-0.3,0.4-0.4,0.7-0.5,0.9s-0.1,0.3-0.3,0.3s-0.2-0.1-0.2-0.4
	c0-0.4,0.5-2.9,0.6-3.1c0.1-0.3,0.2-0.5,0.3-0.5c0.2,0,0.5,0.3,1.2,0.3c0.8,0.1,1.8,0.1,2.7,0.1h10.7c0.9,0,1.5-0.1,1.9-0.1
	c0.4-0.1,0.6-0.1,0.7-0.1c0.2,0,0.2,0.2,0.2,0.6c0,0.6-0.1,2.4-0.1,3.2c0,0.3-0.1,0.4-0.2,0.4c-0.2,0-0.3-0.1-0.3-0.5v-0.3
	c0-0.7-0.8-1.5-3.2-1.5l-3.4-0.1v11.1c0,2.5,0,4.6,0.1,5.8c0.1,0.8,0.2,1.4,1.1,1.5c0.4,0.1,1,0.1,1.4,0.1c0.3,0,0.4,0.1,0.4,0.2
	c0,0.2-0.2,0.3-0.5,0.3c-1.8,0-3.5-0.1-4.3-0.1c-0.6,0-2.3,0.1-3.4,0.1c-0.4,0-0.5-0.1-0.5-0.3c0-0.1,0.1-0.2,0.4-0.2
	c0.4,0,0.7,0,1-0.1c0.6-0.1,0.7-0.7,0.8-1.5c0.1-1.1,0.1-3.3,0.1-5.8v-11.2H559.4z"/>
<path class="st1" d="M574.5,363.3c-0.1,0-0.2,0.1-0.2,0.2l-1.5,3.9c-0.3,0.7-0.4,1.3-0.4,1.7c0,0.5,0.2,0.8,1.1,0.8h0.4
	c0.3,0,0.4,0.1,0.4,0.2c0,0.2-0.2,0.3-0.5,0.3c-0.9,0-2-0.1-2.9-0.1c-0.3,0-1.8,0.1-3.2,0.1c-0.3,0-0.5-0.1-0.5-0.3
	c0-0.2,0.1-0.2,0.3-0.2s0.6,0,0.8,0c1.2-0.2,1.8-1.1,2.3-2.4l6.8-17c0.3-0.8,0.5-1.1,0.8-1.1c0.2,0,0.4,0.2,0.7,0.9
	c0.6,1.5,5,12.5,6.7,16.6c1,2.4,1.8,2.8,2.4,3c0.4,0.1,0.8,0.1,1.1,0.1c0.2,0,0.3,0,0.3,0.2s-0.2,0.3-1.2,0.3s-2.9,0-5.1-0.1
	c-0.5,0-0.8,0-0.8-0.2s0.1-0.2,0.4-0.2c0.2-0.1,0.4-0.3,0.2-0.6l-2.2-5.7c-0.1-0.1-0.1-0.2-0.3-0.2h-5.9V363.3z M580,361.9
	c0.1,0,0.2-0.1,0.1-0.2l-2.4-6.7c0-0.1,0-0.2-0.1-0.2s-0.1,0.1-0.2,0.2l-2.5,6.7c0,0.1,0,0.2,0.1,0.2H580z"/>
<path class="st1" d="M594.2,351.4l-4,0.1c-1.6,0-2.2,0.2-2.6,0.8c-0.3,0.4-0.4,0.7-0.5,1c-0.1,0.2-0.1,0.3-0.3,0.3s-0.2-0.1-0.2-0.4
	c0-0.4,0.5-2.9,0.6-3.1c0.1-0.4,0.2-0.5,0.3-0.5c0.2,0,0.5,0.3,1.2,0.3c0.8,0.1,1.8,0.1,2.7,0.1h10.7c0.9,0,1.5-0.1,1.9-0.1
	c0.4-0.1,0.6-0.1,0.7-0.1c0.2,0,0.2,0.2,0.2,0.6c0,0.6-0.1,2.4-0.1,3.1c0,0.3-0.1,0.4-0.2,0.4c-0.2,0-0.3-0.1-0.3-0.5v-0.3
	c-0.1-0.7-0.8-1.5-3.2-1.5l-3.4-0.1v11.1c0,2.5,0,4.6,0.1,5.8c0.1,0.8,0.2,1.4,1.1,1.5c0.4,0.1,1,0.1,1.4,0.1c0.3,0,0.4,0.1,0.4,0.2
	c0,0.2-0.2,0.3-0.5,0.3c-1.8,0-3.5-0.1-4.3-0.1c-0.6,0-2.3,0.1-3.4,0.1c-0.3,0-0.5-0.1-0.5-0.3c0-0.1,0.1-0.2,0.4-0.2
	c0.4,0,0.7,0,1-0.1c0.5-0.1,0.7-0.7,0.8-1.5c0.1-1.1,0.1-3.3,0.1-5.8v-11.2H594.2z"/>
<path class="st1" d="M609.8,357.7c0-4.1,0-4.9-0.1-5.7c0-0.9-0.3-1.4-1.2-1.5c-0.2-0.1-0.7-0.1-1.1-0.1c-0.3,0-0.5-0.1-0.5-0.2
	c0-0.2,0.2-0.3,0.6-0.3c0.7,0,1.5,0,2.2,0s1.3,0.1,1.7,0.1c0.9,0,6.3,0,6.8,0c0.5-0.1,0.9-0.1,1.2-0.2c0.1,0,0.3-0.1,0.4-0.1
	c0.1,0,0.2,0.1,0.2,0.2c0,0.2-0.1,0.5-0.2,1.8c0,0.3-0.1,1.5-0.1,1.8c0,0.1-0.1,0.3-0.3,0.3s-0.2-0.1-0.2-0.4c0-0.2,0-0.7-0.2-1
	c-0.2-0.5-0.5-0.8-1.8-1c-0.5-0.1-3.3-0.1-3.9-0.1c-0.1,0-0.2,0.1-0.2,0.3v6.9c0,0.2,0,0.3,0.2,0.3c0.6,0,3.7,0,4.3-0.1
	c0.7-0.1,1.1-0.1,1.3-0.4c0.2-0.2,0.3-0.4,0.4-0.4c0.1,0,0.2,0.1,0.2,0.2c0,0.2-0.1,0.6-0.2,2c0,0.6-0.1,1.6-0.1,1.8
	c0,0.2,0,0.5-0.2,0.5s-0.2-0.1-0.2-0.2c0-0.3,0-0.6-0.1-1c-0.1-0.5-0.5-0.9-1.5-1.1c-0.5-0.1-3.2-0.1-3.8-0.1
	c-0.1,0-0.2,0.1-0.2,0.3v2.1c0,0.9,0,3.4,0,4.2c0.1,1.9,0.5,2.3,3.2,2.3c0.7,0,1.8,0,2.5-0.3s1-0.9,1.2-2c0.1-0.3,0.1-0.4,0.3-0.4
	s0.2,0.2,0.2,0.5c0,0.6-0.2,2.5-0.3,3c-0.2,0.7-0.4,0.7-1.5,0.7c-2,0-3.5-0.1-4.7-0.1c-1.2-0.1-2-0.1-2.8-0.1c-0.3,0-0.9,0-1.6,0
	c-0.6,0-1.3,0.1-1.9,0.1c-0.4,0-0.5-0.1-0.5-0.3c0-0.1,0.1-0.2,0.4-0.2c0.4,0,0.7-0.1,1-0.1c0.5-0.1,0.7-0.7,0.8-1.5
	c0.1-1.1,0.1-3.3,0.1-5.8v-4.7H609.8z"/>
<g>
	<g>
		<path d="M155.2,333v-2.8l5-1.9c0.3-0.1,0.6-0.3,0.8-0.5c0.2-0.2,0.4-0.6,0.4-1.1v-33.8c0-0.5-0.1-0.8-0.4-1
			c-0.2-0.2-0.5-0.4-0.8-0.5l-5-1.9v-2.8h23.1v2.8l-5,1.9c-0.3,0.1-0.6,0.3-0.9,0.5s-0.4,0.6-0.4,1v34.7h15.4c0.3,0,0.6-0.1,0.9-0.4
			c0.2-0.2,0.4-0.6,0.5-1l2-9.5h4.4V333H155.2z"/>
		<path d="M233.6,333v-2.7l4.8-1.7c0.4-0.2,0.7-0.3,1-0.6c0.2-0.2,0.4-0.6,0.4-1v-21c0-0.5-0.1-0.8-0.4-1.1c-0.3-0.2-0.6-0.5-1-0.6
			l-4.6-1.8v-2.7l16.2-1.1v28.3c0,0.5,0.1,0.8,0.4,1c0.3,0.2,0.6,0.4,0.9,0.5l4.7,1.7v2.7H233.6z M244.2,293.5c-1,0-2-0.3-3-0.8
			c-1-0.5-1.8-1.2-2.5-2c-0.6-0.9-1-1.8-1-2.9c0-1.7,0.7-3,2-3.9c1.3-0.9,2.8-1.4,4.5-1.4c2,0,3.6,0.4,4.8,1.3
			c1.2,0.9,1.9,2.1,1.9,3.7c0,1.1-0.3,2.1-1,3c-0.6,0.9-1.5,1.6-2.5,2.1C246.4,293.2,245.4,293.5,244.2,293.5z"/>
		<path d="M324,324.2h1.6v4.1c-1.7,1.3-3.7,2.5-6,3.7c-2.3,1.2-5,1.8-8.2,1.8c-3.6,0-6.6-0.8-9.1-2.3c-2.5-1.5-4.4-3.6-5.8-6.3
			c-1.3-2.7-2-5.7-2-9.1c0-2.7,0.5-5.3,1.6-7.5c1.1-2.3,2.5-4.3,4.3-6c1.8-1.7,3.9-3,6.3-3.9c2.3-0.9,4.8-1.4,7.4-1.4
			c1.8,0,3.3,0.2,4.7,0.5c1.3,0.3,2.5,0.7,3.4,1.1c0.9,0.4,1.7,0.8,2.3,1l-0.3,8.4h-2.1c-1.1-0.8-2.4-1.6-3.7-2.4
			c-1.4-0.9-2.7-1.6-4.2-2.2c-1.4-0.6-2.8-0.9-4.1-0.9c-0.5,0-1,0.1-1.4,0.3c-0.4,0.2-0.8,0.6-1.2,1.2c-0.3,0.5-0.7,1.2-1.1,2.2
			c-0.4,1-0.7,2.1-0.9,3.5c-0.2,1.4-0.4,3-0.4,4.7c0,4,0.9,7,2.6,9.2c1.8,2.1,4.4,3.2,7.8,3.2c1.1,0,2.2-0.1,3.2-0.4
			c1-0.3,2-0.7,2.9-1.1C322.5,325.1,323.3,324.6,324,324.2z"/>
		<path d="M382,333.7c-3.5,0-6.6-0.7-9.3-2.1c-2.7-1.4-4.9-3.4-6.5-6.1c-1.6-2.7-2.4-5.9-2.4-9.8c0-3.5,0.8-6.6,2.3-9.4
			c1.5-2.8,3.6-5,6.4-6.7c2.7-1.6,5.9-2.5,9.6-2.5c3.4,0,6.3,0.6,8.7,1.9c2.4,1.3,4.2,3,5.5,5s1.9,4.4,1.9,6.8c0,0.3,0,0.8,0,1.4
			s-0.1,1.3-0.1,2c0,0.7-0.1,1.1-0.1,1.3h-24l0-4.6h13.9c0-1.9-0.2-3.6-0.6-5c-0.4-1.4-1.1-2.5-2-3.2c-0.9-0.8-2.1-1.1-3.7-1.1
			c-1.5,0-2.7,0.4-3.7,1.1c-0.9,0.7-1.7,1.7-2.2,2.9c-0.5,1.2-0.9,2.5-1.1,4c-0.2,1.5-0.3,3-0.3,4.6c0,3,0.4,5.4,1.3,7.3
			c0.9,1.9,2.2,3.3,3.9,4.2c1.8,0.9,4,1.4,6.7,1.4c1.6,0,3.1-0.2,4.4-0.5c1.3-0.3,2.5-0.7,3.5-1.1c1-0.4,1.9-0.8,2.6-1.2h1.6v3.9
			c-1.8,1.3-4.1,2.6-6.9,3.7C388.3,333.1,385.3,333.7,382,333.7z"/>
		<path d="M437.4,333v-2.7l3.9-1.6c0.4-0.2,0.7-0.4,0.9-0.6c0.2-0.2,0.4-0.5,0.4-1v-21.7c0-0.5-0.1-0.8-0.4-1.1
			c-0.3-0.2-0.6-0.4-1-0.6l-3.7-1.6v-2.7l14.7-1.8v5.5h0.4c1.3-1.7,2.7-3,4-3.8c1.3-0.8,2.6-1.4,3.9-1.6c1.3-0.2,2.5-0.4,3.8-0.4
			c2.1,0,4,0.4,5.7,1.2c1.7,0.8,3.1,2.1,4.1,3.8s1.5,4,1.5,6.7v17.9c0,0.5,0.1,0.9,0.4,1.1c0.2,0.2,0.5,0.4,0.9,0.6l3.4,1.6v2.7
			h-19.4v-2.7l3.1-1.6c0.4-0.2,0.7-0.4,1-0.6c0.3-0.2,0.4-0.6,0.4-1.1v-14c0-2-0.1-3.6-0.4-5c-0.3-1.3-0.9-2.4-1.7-3.1
			c-0.9-0.7-2.1-1-3.8-1c-1.1,0-2.3,0.2-3.5,0.5c-1.2,0.3-2.3,1.1-3.1,2.3v20.5c0,0.5,0.1,0.8,0.4,1c0.2,0.2,0.6,0.4,0.9,0.6
			l2.9,1.6v2.7H437.4z"/>
		<path d="M545.6,298.3l-0.3,5.1h-12v19.4c0,1,0.4,1.9,1.1,2.6c0.7,0.7,1.6,1.3,2.6,1.7c1,0.4,1.8,0.6,2.6,0.6c0.7,0,1.5,0,2.5-0.1
			c1-0.1,1.7-0.2,2.2-0.3h1.4v3c-0.5,0.3-1.4,0.7-2.5,1.2s-2.5,1-4.1,1.4c-1.5,0.4-3.1,0.6-4.8,0.6c-2,0-3.9-0.3-5.6-0.9
			s-3.1-1.4-4.1-2.5c-1-1.1-1.5-2.3-1.5-3.8v-23h-5.6v-4.3c1.2-0.2,2.3-0.4,3.2-0.6c0.9-0.2,1.6-0.7,2.2-1.3
			c0.5-0.6,0.8-1.7,0.9-3.1l0.3-4.7l9.2-1.3v10.3H545.6z"/>
		<path d="M593.9,333.6c-2.1,0-3.9-0.5-5.4-1.4s-2.7-2.2-3.5-3.7c-0.8-1.5-1.2-3.1-1.2-4.8c0-2.2,0.5-4.1,1.6-5.7
			c1.1-1.6,2.4-2.8,4.1-3.8s3.5-1.7,5.3-2.2c1.9-0.5,3.7-0.7,5.3-0.7c0.3,0,0.9,0,1.6,0.1c0.8,0.1,1.5,0.2,2.3,0.2
			c0.8,0.1,1.3,0.1,1.6,0.1l0-3.1c0-2.2-0.3-3.9-1.1-5s-2.1-1.6-4-1.6c-0.9,0-1.9,0.2-3,0.7c-1.1,0.5-2.2,1.1-3.3,1.8
			c-1.1,0.7-2.1,1.4-3.1,2.1c-1,0.7-1.8,1.2-2.4,1.6h-2.1l-0.3-8.1c1.4-0.5,2.9-0.9,4.4-1.4c1.5-0.4,3.1-0.8,4.8-1.1
			c1.7-0.3,3.7-0.4,6-0.4c2.4,0,4.7,0.3,6.9,0.9c2.2,0.6,4,1.7,5.4,3.3c1.4,1.6,2.1,3.9,2.1,6.9l0,17c0,0.8,0.3,1.4,0.8,2
			c0.5,0.5,1.1,0.8,1.8,0.8c0.4,0,0.9,0,1.5-0.1c0.6-0.1,1.1-0.2,1.6-0.3h1.1v3.1c-0.5,0.4-1.3,0.8-2.3,1.2c-1,0.4-2,0.8-3.2,1.1
			s-2.1,0.5-3.1,0.5c-2.6,0-4.5-0.5-5.9-1.4c-1.3-0.9-2-2.4-2-4.5h-0.4c-1.1,1.7-2.4,3-3.8,3.8s-2.8,1.4-4.2,1.7
			C596.3,333.5,595.1,333.6,593.9,333.6z M601.4,293.8c-2.1,0-4-0.4-5.6-1.3c-1.6-0.9-3-2.2-4-4.1c-1.1-1.8-1.8-4.2-2.1-7.1l3.4-0.6
			c0.5,1.5,1.1,2.7,1.7,3.8c0.6,1,1.5,1.8,2.5,2.3c1,0.5,2.4,0.8,4.1,0.8c1.6,0,3-0.3,4-0.8c1-0.5,1.9-1.3,2.6-2.3
			c0.7-1,1.3-2.3,1.8-3.8l3.4,0.6c-0.6,4.4-1.9,7.5-3.9,9.5C607.2,292.8,604.6,293.8,601.4,293.8z M599.4,327.7c1,0,2.2-0.2,3.4-0.7
			c1.2-0.5,2.2-1.3,2.9-2.5v-8.8c-2.3,0-4.2,0.2-5.9,0.6c-1.7,0.4-3,1.1-3.9,2.1c-0.9,1-1.4,2.3-1.4,4c0,1.4,0.3,2.5,0.8,3.3
			c0.5,0.8,1.2,1.3,2,1.6S598.6,327.7,599.4,327.7z"/>
	</g>
</g>
</svg>
